<?xml version="1.0" standalone="no"?>
<!DOCTYPE svg PUBLIC "-//W3C//DTD SVG 20010904//EN"
 "http://www.w3.org/TR/2001/REC-SVG-20010904/DTD/svg10.dtd">
<svg version="1.0" xmlns="http://www.w3.org/2000/svg"
 width="260.000000pt" height="260.000000pt" viewBox="0 0 260.000000 260.000000"
 preserveAspectRatio="xMidYMid meet">
<metadata>
Created by potrace 1.11, written by Peter Selinger 2001-2013
</metadata>
<g transform="translate(0.000000,260.000000) scale(0.100000,-0.100000)"
fill="#000000" stroke="none">
<path d="M1030 2335 l0 -45 -135 0 -135 0 0 -45 0 -45 -45 0 -45 0 0 -45 0
-45 -45 0 -45 0 0 -45 0 -45 -45 0 -45 0 0 -45 0 -45 -45 0 -45 0 0 -135 0
-135 -45 0 -45 0 0 -360 0 -360 45 0 45 0 0 -135 0 -135 45 0 45 0 0 -45 0
-45 45 0 45 0 0 -45 0 -45 45 0 45 0 0 -45 0 -45 45 0 45 0 0 -45 0 -45 135 0
135 0 0 -45 0 -45 270 0 270 0 0 45 0 45 135 0 135 0 0 45 0 45 45 0 45 0 0
45 0 45 45 0 45 0 0 45 0 45 45 0 45 0 0 45 0 45 45 0 45 0 0 135 0 135 45 0
45 0 0 360 0 360 -45 0 -45 0 0 135 0 135 -45 0 -45 0 0 45 0 45 -45 0 -45 0
0 45 0 45 -45 0 -45 0 0 45 0 45 -45 0 -45 0 0 45 0 45 -135 0 -135 0 0 45 0
45 -270 0 -270 0 0 -45z m540 -90 l0 -45 45 0 45 0 0 -90 0 -90 90 0 90 0 0
-45 0 -45 45 0 45 0 0 -45 0 -45 45 0 45 0 0 -45 0 -45 45 0 45 0 0 -135 0
-135 45 0 45 0 0 -270 0 -270 -45 0 -45 0 0 -135 0 -135 -45 0 -45 0 0 -45 0
-45 -45 0 -45 0 0 -45 0 -45 -45 0 -45 0 0 -45 0 -45 -135 0 -135 0 0 -45 0
-45 -270 0 -270 0 0 45 0 45 -135 0 -135 0 0 45 0 45 -45 0 -45 0 0 45 0 45
-45 0 -45 0 0 45 0 45 -45 0 -45 0 0 135 0 135 -45 0 -45 0 0 270 0 270 45 0
45 0 0 135 0 135 45 0 45 0 0 45 0 45 45 0 45 0 0 45 0 45 45 0 45 0 0 45 0
45 90 0 90 0 0 90 0 90 45 0 45 0 0 45 0 45 270 0 270 0 0 -45z"/>
<path d="M1030 1975 l0 -45 -90 0 -90 0 0 -45 0 -45 -45 0 -45 0 0 -45 0 -45
-45 0 -45 0 0 -45 0 -45 -45 0 -45 0 0 -90 0 -90 -45 0 -45 0 0 -270 0 -270
45 0 45 0 0 -90 0 -90 45 0 45 0 0 -45 0 -45 45 0 45 0 0 -45 0 -45 45 0 45 0
0 -45 0 -45 90 0 90 0 0 -45 0 -45 270 0 270 0 0 45 0 45 90 0 90 0 0 45 0 45
45 0 45 0 0 45 0 45 45 0 45 0 0 45 0 45 45 0 45 0 0 90 0 90 45 0 45 0 0 270
0 270 -45 0 -45 0 0 90 0 90 -45 0 -45 0 0 45 0 45 -45 0 -45 0 0 45 0 45 -45
0 -45 0 0 45 0 45 -90 0 -90 0 0 45 0 45 -270 0 -270 0 0 -45z m180 -270 l0
-45 90 0 90 0 0 45 0 45 45 0 45 0 0 -45 0 -45 45 0 45 0 0 -45 0 -45 45 0 45
0 0 -135 0 -135 -45 0 -45 0 0 -90 0 -90 45 0 45 0 0 -135 0 -135 -45 0 -45 0
0 -45 0 -45 -45 0 -45 0 0 -45 0 -45 -45 0 -45 0 0 45 0 45 -90 0 -90 0 0 -45
0 -45 -45 0 -45 0 0 45 0 45 -90 0 -90 0 0 45 0 45 45 0 45 0 0 360 0 360 -45
0 -45 0 0 45 0 45 90 0 90 0 0 45 0 45 45 0 45 0 0 -45z"/>
<path d="M1210 1390 l0 -90 135 0 135 0 0 90 0 90 -135 0 -135 0 0 -90z"/>
<path d="M1210 1030 l0 -90 135 0 135 0 0 90 0 90 -135 0 -135 0 0 -90z"/>
</g>
</svg>
